<svg xmlns="http://www.w3.org/2000/svg" viewBox="0 0 24 30" x="0px" y="0px">
    <title>user, interface, ui, person, people, Circle, contact</title>
    <g data-name="User Contact">
        <path
            d="M22,12a10.0257,10.0257,0,1,0-3.4687,7.5586l.0043-.0042.0015-.0012.0014-.0015A9.9491,9.9491,0,0,0,22,12ZM4,12a8,8,0,1,1,14.28,4.9348,6.93,6.93,0,0,0-4.1032-3.587,4.0017,4.0017,0,1,0-4.3318.0115,7.0553,7.0553,0,0,0-4.1268,3.5733A7.95,7.95,0,0,1,4,12Z"
            fill="#444" />
    </g><text x="0" y="39" fill="#000000" font-size="5px" font-weight="bold"
        font-family="'Helvetica Neue', Helvetica, Arial-Unicode, Arial, Sans-serif">Created by Kmg Design</text><text
        x="0" y="44" fill="#000000" font-size="5px" font-weight="bold"
        font-family="'Helvetica Neue', Helvetica, Arial-Unicode, Arial, Sans-serif">from the Noun Project</text>
</svg>